<svg width="18" height="18" viewBox="0 0 18 18" fill="none" xmlns="http://www.w3.org/2000/svg">
  <path
    d="M13.8402 6.54029L13.5126 6.21045C13.4095 6.10744 13.2724 6.0507 13.1258 6.0507C12.9793 6.0507 12.8419 6.10744 12.7389 6.21045L9.00224 9.94723L5.26131 6.20631C5.15838 6.1033 5.02107 6.04663 4.87456 6.04663C4.72805 6.04663 4.59066 6.1033 4.48765 6.20631L4.16 6.53411C3.94667 6.74729 3.94667 7.09453 4.16 7.3077L8.61402 11.7777C8.71695 11.8807 8.8541 11.9532 9.00191 11.9532H9.00362C9.1502 11.9532 9.28736 11.8806 9.39029 11.7777L13.8402 7.31981C13.9433 7.21688 13.9998 7.07558 14 6.92908C14 6.78249 13.9433 6.64314 13.8402 6.54029Z"
    fill="#7f8c8d" />
</svg>